<?xml version="1.0" encoding="UTF-8" standalone="no"?>
<!DOCTYPE svg PUBLIC "-//W3C//DTD SVG 1.1//EN" "http://www.w3.org/Graphics/SVG/1.1/DTD/svg11.dtd">
<svg width="406.0px" height="406.0px" version="1.1"
    xmlns="http://www.w3.org/2000/svg"
    xmlns:xlink="http://www.w3.org/1999/xlink"
    xml:space="preserve"
    xmlns:serif="http://www.serif.com/"
    style="fill-rule:evenodd;clip-rule:evenodd;stroke-linecap:round;stroke-linejoin:round;stroke-miterlimit:1.5;">
        <rect x="1.0" y="1.0" style="fill:none;stroke:#000000;stroke-width:0.5px;" width="404.0" height="404.0"/>
        <path d="M323.0,71.0 C329.0,71.0 335.0,77.0 335.0,83.0 C335.0,89.0 329.0,95.0 323.0,95.0 C317.0,95.0 311.0,89.0 311.0,83.0 C311.0,77.0 317.0,71.0 323.0,71.0 Z" style="fill:none;stroke:#000000;stroke-width:0.5px;"/>
        <path d="M227.0,167.0 C233.0,167.0 239.0,173.0 239.0,179.0 C239.0,185.0 233.0,191.0 227.0,191.0 C221.0,191.0 215.0,185.0 215.0,179.0 C215.0,173.0 221.0,167.0 227.0,167.0 Z" style="fill:none;stroke:#000000;stroke-width:0.5px;"/>
        <path d="M347.0,383.0 L371.0,383.0 C377.0,383.0 383.0,377.0 383.0,371.0 L383.0,347.0 L383.0,299.0 L383.0,275.0 C383.0,269.0 377.0,263.0 371.0,263.0 L347.0,263.0 L299.0,263.0 L275.0,263.0 C269.0,263.0 263.0,269.0 263.0,275.0 C263.0,281.0 269.0,287.0 275.0,287.0 L299.0,287.0 L347.0,287.0 C353.0,287.0 359.0,293.0 359.0,299.0 C359.0,305.0 353.0,311.0 347.0,311.0 L299.0,311.0 L275.0,311.0 C269.0,311.0 263.0,317.0 263.0,323.0 C263.0,329.0 269.0,335.0 275.0,335.0 L299.0,335.0 L347.0,335.0 C353.0,335.0 359.0,341.0 359.0,347.0 C359.0,353.0 353.0,359.0 347.0,359.0 L299.0,359.0 L275.0,359.0 C269.0,359.0 263.0,365.0 263.0,371.0 C263.0,377.0 269.0,383.0 275.0,383.0 L299.0,383.0 L347.0,383.0 Z" style="fill:none;stroke:#000000;stroke-width:0.5px;"/>
        <path d="M203.0,383.0 L227.0,383.0 C233.0,383.0 239.0,377.0 239.0,371.0 L239.0,347.0 L239.0,323.0 C239.0,317.0 233.0,311.0 227.0,311.0 L203.0,311.0 L155.0,311.0 L131.0,311.0 C125.0,311.0 119.0,317.0 119.0,323.0 L119.0,347.0 L119.0,371.0 C119.0,377.0 125.0,383.0 131.0,383.0 C137.0,383.0 143.0,377.0 143.0,371.0 L143.0,347.0 C143.0,341.0 149.0,335.0 155.0,335.0 L203.0,335.0 C209.0,335.0 215.0,341.0 215.0,347.0 C215.0,353.0 209.0,359.0 203.0,359.0 L179.0,359.0 C173.0,359.0 167.0,365.0 167.0,371.0 C167.0,377.0 173.0,383.0 179.0,383.0 L203.0,383.0 Z" style="fill:none;stroke:#000000;stroke-width:0.5px;"/>
        <path d="M59.0,383.0 L83.0,383.0 C89.0,383.0 95.0,377.0 95.0,371.0 C95.0,365.0 89.0,359.0 83.0,359.0 L59.0,359.0 C53.0,359.0 47.0,353.0 47.0,347.0 L47.0,299.0 L47.0,251.0 C47.0,245.0 53.0,239.0 59.0,239.0 C65.0,239.0 71.0,245.0 71.0,251.0 L71.0,299.0 L71.0,323.0 C71.0,329.0 77.0,335.0 83.0,335.0 C89.0,335.0 95.0,329.0 95.0,323.0 L95.0,299.0 L95.0,251.0 C95.0,245.0 101.0,239.0 107.0,239.0 C113.0,239.0 119.0,245.0 119.0,251.0 L119.0,275.0 C119.0,281.0 125.0,287.0 131.0,287.0 C137.0,287.0 143.0,281.0 143.0,275.0 L143.0,251.0 L143.0,227.0 C143.0,221.0 137.0,215.0 131.0,215.0 L107.0,215.0 C101.0,215.0 95.0,209.0 95.0,203.0 C95.0,197.0 101.0,191.0 107.0,191.0 L131.0,191.0 C137.0,191.0 143.0,185.0 143.0,179.0 C143.0,173.0 137.0,167.0 131.0,167.0 L107.0,167.0 C101.0,167.0 95.0,161.0 95.0,155.0 C95.0,149.0 101.0,143.0 107.0,143.0 L131.0,143.0 C137.0,143.0 143.0,137.0 143.0,131.0 C143.0,125.0 137.0,119.0 131.0,119.0 L107.0,119.0 C101.0,119.0 95.0,113.0 95.0,107.0 C95.0,101.0 101.0,95.0 107.0,95.0 L131.0,95.0 C137.0,95.0 143.0,89.0 143.0,83.0 C143.0,77.0 137.0,71.0 131.0,71.0 L107.0,71.0 C101.0,71.0 95.0,65.0 95.0,59.0 C95.0,53.0 101.0,47.0 107.0,47.0 L155.0,47.0 L203.0,47.0 L227.0,47.0 C233.0,47.0 239.0,41.0 239.0,35.0 C239.0,29.0 233.0,23.0 227.0,23.0 L203.0,23.0 L155.0,23.0 L107.0,23.0 L59.0,23.0 L35.0,23.0 C29.0,23.0 23.0,29.0 23.0,35.0 C23.0,41.0 29.0,47.0 35.0,47.0 L59.0,47.0 C65.0,47.0 71.0,53.0 71.0,59.0 C71.0,65.0 65.0,71.0 59.0,71.0 L35.0,71.0 C29.0,71.0 23.0,77.0 23.0,83.0 C23.0,89.0 29.0,95.0 35.0,95.0 L59.0,95.0 C65.0,95.0 71.0,101.0 71.0,107.0 L71.0,155.0 L71.0,203.0 C71.0,209.0 65.0,215.0 59.0,215.0 C53.0,215.0 47.0,209.0 47.0,203.0 L47.0,155.0 L47.0,131.0 C47.0,125.0 41.0,119.0 35.0,119.0 C29.0,119.0 23.0,125.0 23.0,131.0 L23.0,155.0 L23.0,203.0 L23.0,251.0 L23.0,299.0 L23.0,347.0 L23.0,371.0 C23.0,377.0 29.0,383.0 35.0,383.0 L59.0,383.0 Z" style="fill:none;stroke:#000000;stroke-width:0.5px;"/>
        <path d="M215.0,251.0 L215.0,275.0 C215.0,281.0 221.0,287.0 227.0,287.0 C233.0,287.0 239.0,281.0 239.0,275.0 L239.0,251.0 L239.0,227.0 C239.0,221.0 233.0,215.0 227.0,215.0 L203.0,215.0 C197.0,215.0 191.0,209.0 191.0,203.0 L191.0,155.0 L191.0,107.0 C191.0,101.0 197.0,95.0 203.0,95.0 L227.0,95.0 C233.0,95.0 239.0,89.0 239.0,83.0 C239.0,77.0 233.0,71.0 227.0,71.0 L203.0,71.0 L179.0,71.0 C173.0,71.0 167.0,77.0 167.0,83.0 L167.0,107.0 L167.0,155.0 L167.0,203.0 L167.0,251.0 L167.0,275.0 C167.0,281.0 173.0,287.0 179.0,287.0 C185.0,287.0 191.0,281.0 191.0,275.0 L191.0,251.0 C191.0,245.0 197.0,239.0 203.0,239.0 C209.0,239.0 215.0,245.0 215.0,251.0 Z" style="fill:none;stroke:#000000;stroke-width:0.5px;"/>
        <path d="M359.0,203.0 L359.0,227.0 C359.0,233.0 365.0,239.0 371.0,239.0 C377.0,239.0 383.0,233.0 383.0,227.0 L383.0,203.0 L383.0,179.0 C383.0,173.0 377.0,167.0 371.0,167.0 L347.0,167.0 L323.0,167.0 C317.0,167.0 311.0,173.0 311.0,179.0 C311.0,185.0 317.0,191.0 323.0,191.0 L347.0,191.0 C353.0,191.0 359.0,197.0 359.0,203.0 Z" style="fill:none;stroke:#000000;stroke-width:0.5px;"/>
        <path d="M299.0,239.0 L323.0,239.0 C329.0,239.0 335.0,233.0 335.0,227.0 C335.0,221.0 329.0,215.0 323.0,215.0 L299.0,215.0 C293.0,215.0 287.0,209.0 287.0,203.0 L287.0,179.0 C287.0,173.0 281.0,167.0 275.0,167.0 C269.0,167.0 263.0,173.0 263.0,179.0 L263.0,203.0 L263.0,227.0 C263.0,233.0 269.0,239.0 275.0,239.0 L299.0,239.0 Z" style="fill:none;stroke:#000000;stroke-width:0.5px;"/>
        <path d="M347.0,143.0 L371.0,143.0 C377.0,143.0 383.0,137.0 383.0,131.0 L383.0,107.0 L383.0,83.0 C383.0,77.0 377.0,71.0 371.0,71.0 C365.0,71.0 359.0,77.0 359.0,83.0 L359.0,107.0 C359.0,113.0 353.0,119.0 347.0,119.0 L323.0,119.0 C317.0,119.0 311.0,125.0 311.0,131.0 C311.0,137.0 317.0,143.0 323.0,143.0 L347.0,143.0 Z" style="fill:none;stroke:#000000;stroke-width:0.5px;"/>
        <path d="M251.0,143.0 L275.0,143.0 C281.0,143.0 287.0,137.0 287.0,131.0 L287.0,107.0 L287.0,83.0 C287.0,77.0 281.0,71.0 275.0,71.0 C269.0,71.0 263.0,77.0 263.0,83.0 L263.0,107.0 C263.0,113.0 257.0,119.0 251.0,119.0 L227.0,119.0 C221.0,119.0 215.0,125.0 215.0,131.0 C215.0,137.0 221.0,143.0 227.0,143.0 L251.0,143.0 Z" style="fill:none;stroke:#000000;stroke-width:0.5px;"/>
        <path d="M347.0,47.0 L371.0,47.0 C377.0,47.0 383.0,41.0 383.0,35.0 C383.0,29.0 377.0,23.0 371.0,23.0 L347.0,23.0 L299.0,23.0 L275.0,23.0 C269.0,23.0 263.0,29.0 263.0,35.0 C263.0,41.0 269.0,47.0 275.0,47.0 L299.0,47.0 L347.0,47.0 Z" style="fill:none;stroke:#000000;stroke-width:0.5px;"/>

</svg>
