<?xml version="1.0" encoding="UTF-8" standalone="no"?>
<!DOCTYPE svg PUBLIC "-//W3C//DTD SVG 1.1//EN" "http://www.w3.org/Graphics/SVG/1.1/DTD/svg11.dtd">
<svg width="406.0px" height="406.0px" version="1.1"
    xmlns="http://www.w3.org/2000/svg"
    xmlns:xlink="http://www.w3.org/1999/xlink"
    xml:space="preserve"
    xmlns:serif="http://www.serif.com/"
    style="fill-rule:evenodd;clip-rule:evenodd;stroke-linecap:round;stroke-linejoin:round;stroke-miterlimit:1.5;">
        <rect x="1.0" y="1.0" style="fill:none;stroke:#000000;stroke-width:0.5px;" width="404.0" height="404.0"/>
        <path d="M275.0,23.0 C281.0,23.0 287.0,29.0 287.0,35.0 C287.0,41.0 281.0,47.0 275.0,47.0 C269.0,47.0 263.0,41.0 263.0,35.0 C263.0,29.0 269.0,23.0 275.0,23.0 Z" style="fill:none;stroke:#000000;stroke-width:0.5px;"/>
        <path d="M227.0,311.0 C233.0,311.0 239.0,317.0 239.0,323.0 C239.0,329.0 233.0,335.0 227.0,335.0 C221.0,335.0 215.0,329.0 215.0,323.0 C215.0,317.0 221.0,311.0 227.0,311.0 Z" style="fill:none;stroke:#000000;stroke-width:0.5px;"/>
        <path d="M347.0,383.0 L371.0,383.0 C377.0,383.0 383.0,377.0 383.0,371.0 L383.0,347.0 L383.0,323.0 C383.0,317.0 377.0,311.0 371.0,311.0 C365.0,311.0 359.0,317.0 359.0,323.0 L359.0,347.0 C359.0,353.0 353.0,359.0 347.0,359.0 C341.0,359.0 335.0,353.0 335.0,347.0 L335.0,323.0 C335.0,317.0 329.0,311.0 323.0,311.0 C317.0,311.0 311.0,317.0 311.0,323.0 L311.0,347.0 L311.0,371.0 C311.0,377.0 317.0,383.0 323.0,383.0 L347.0,383.0 Z" style="fill:none;stroke:#000000;stroke-width:0.5px;"/>
        <path d="M263.0,347.0 L263.0,371.0 C263.0,377.0 269.0,383.0 275.0,383.0 C281.0,383.0 287.0,377.0 287.0,371.0 L287.0,347.0 L287.0,323.0 C287.0,317.0 281.0,311.0 275.0,311.0 C269.0,311.0 263.0,317.0 263.0,323.0 L263.0,347.0 Z" style="fill:none;stroke:#000000;stroke-width:0.5px;"/>
        <path d="M203.0,383.0 L227.0,383.0 C233.0,383.0 239.0,377.0 239.0,371.0 C239.0,365.0 233.0,359.0 227.0,359.0 L203.0,359.0 L155.0,359.0 C149.0,359.0 143.0,353.0 143.0,347.0 C143.0,341.0 149.0,335.0 155.0,335.0 L179.0,335.0 C185.0,335.0 191.0,329.0 191.0,323.0 L191.0,299.0 L191.0,251.0 L191.0,227.0 C191.0,221.0 185.0,215.0 179.0,215.0 C173.0,215.0 167.0,221.0 167.0,227.0 L167.0,251.0 L167.0,299.0 C167.0,305.0 161.0,311.0 155.0,311.0 L107.0,311.0 L59.0,311.0 L35.0,311.0 C29.0,311.0 23.0,317.0 23.0,323.0 L23.0,347.0 L23.0,371.0 C23.0,377.0 29.0,383.0 35.0,383.0 L59.0,383.0 L83.0,383.0 C89.0,383.0 95.0,377.0 95.0,371.0 C95.0,365.0 89.0,359.0 83.0,359.0 L59.0,359.0 C53.0,359.0 47.0,353.0 47.0,347.0 C47.0,341.0 53.0,335.0 59.0,335.0 L107.0,335.0 C113.0,335.0 119.0,341.0 119.0,347.0 L119.0,371.0 C119.0,377.0 125.0,383.0 131.0,383.0 L155.0,383.0 L203.0,383.0 Z" style="fill:none;stroke:#000000;stroke-width:0.5px;"/>
        <path d="M359.0,251.0 L359.0,275.0 C359.0,281.0 365.0,287.0 371.0,287.0 C377.0,287.0 383.0,281.0 383.0,275.0 L383.0,251.0 L383.0,227.0 C383.0,221.0 377.0,215.0 371.0,215.0 L347.0,215.0 L323.0,215.0 C317.0,215.0 311.0,221.0 311.0,227.0 L311.0,251.0 C311.0,257.0 305.0,263.0 299.0,263.0 C293.0,263.0 287.0,257.0 287.0,251.0 L287.0,227.0 C287.0,221.0 281.0,215.0 275.0,215.0 L251.0,215.0 L227.0,215.0 C221.0,215.0 215.0,221.0 215.0,227.0 L215.0,251.0 L215.0,275.0 C215.0,281.0 221.0,287.0 227.0,287.0 C233.0,287.0 239.0,281.0 239.0,275.0 L239.0,251.0 C239.0,245.0 245.0,239.0 251.0,239.0 C257.0,239.0 263.0,245.0 263.0,251.0 L263.0,275.0 C263.0,281.0 269.0,287.0 275.0,287.0 L299.0,287.0 L323.0,287.0 C329.0,287.0 335.0,281.0 335.0,275.0 L335.0,251.0 C335.0,245.0 341.0,239.0 347.0,239.0 C353.0,239.0 359.0,245.0 359.0,251.0 Z" style="fill:none;stroke:#000000;stroke-width:0.5px;"/>
        <path d="M107.0,287.0 L131.0,287.0 C137.0,287.0 143.0,281.0 143.0,275.0 L143.0,251.0 L143.0,203.0 L143.0,179.0 C143.0,173.0 137.0,167.0 131.0,167.0 C125.0,167.0 119.0,173.0 119.0,179.0 L119.0,203.0 C119.0,209.0 113.0,215.0 107.0,215.0 L83.0,215.0 C77.0,215.0 71.0,221.0 71.0,227.0 C71.0,233.0 77.0,239.0 83.0,239.0 L107.0,239.0 C113.0,239.0 119.0,245.0 119.0,251.0 C119.0,257.0 113.0,263.0 107.0,263.0 L83.0,263.0 C77.0,263.0 71.0,269.0 71.0,275.0 C71.0,281.0 77.0,287.0 83.0,287.0 L107.0,287.0 Z" style="fill:none;stroke:#000000;stroke-width:0.5px;"/>
        <path d="M23.0,251.0 L23.0,275.0 C23.0,281.0 29.0,287.0 35.0,287.0 C41.0,287.0 47.0,281.0 47.0,275.0 L47.0,251.0 L47.0,203.0 C47.0,197.0 53.0,191.0 59.0,191.0 L83.0,191.0 C89.0,191.0 95.0,185.0 95.0,179.0 L95.0,155.0 L95.0,131.0 C95.0,125.0 89.0,119.0 83.0,119.0 C77.0,119.0 71.0,125.0 71.0,131.0 L71.0,155.0 C71.0,161.0 65.0,167.0 59.0,167.0 C53.0,167.0 47.0,161.0 47.0,155.0 L47.0,107.0 L47.0,83.0 C47.0,77.0 41.0,71.0 35.0,71.0 C29.0,71.0 23.0,77.0 23.0,83.0 L23.0,107.0 L23.0,155.0 L23.0,203.0 L23.0,251.0 Z" style="fill:none;stroke:#000000;stroke-width:0.5px;"/>
        <path d="M347.0,191.0 L371.0,191.0 C377.0,191.0 383.0,185.0 383.0,179.0 C383.0,173.0 377.0,167.0 371.0,167.0 L347.0,167.0 C341.0,167.0 335.0,161.0 335.0,155.0 L335.0,107.0 C335.0,101.0 341.0,95.0 347.0,95.0 C353.0,95.0 359.0,101.0 359.0,107.0 L359.0,131.0 C359.0,137.0 365.0,143.0 371.0,143.0 C377.0,143.0 383.0,137.0 383.0,131.0 L383.0,107.0 L383.0,83.0 C383.0,77.0 377.0,71.0 371.0,71.0 L347.0,71.0 C341.0,71.0 335.0,65.0 335.0,59.0 C335.0,53.0 341.0,47.0 347.0,47.0 L371.0,47.0 C377.0,47.0 383.0,41.0 383.0,35.0 C383.0,29.0 377.0,23.0 371.0,23.0 L347.0,23.0 L323.0,23.0 C317.0,23.0 311.0,29.0 311.0,35.0 L311.0,59.0 C311.0,65.0 305.0,71.0 299.0,71.0 L275.0,71.0 C269.0,71.0 263.0,77.0 263.0,83.0 C263.0,89.0 269.0,95.0 275.0,95.0 L299.0,95.0 C305.0,95.0 311.0,101.0 311.0,107.0 C311.0,113.0 305.0,119.0 299.0,119.0 L275.0,119.0 C269.0,119.0 263.0,125.0 263.0,131.0 C263.0,137.0 269.0,143.0 275.0,143.0 L299.0,143.0 C305.0,143.0 311.0,149.0 311.0,155.0 C311.0,161.0 305.0,167.0 299.0,167.0 L275.0,167.0 C269.0,167.0 263.0,173.0 263.0,179.0 C263.0,185.0 269.0,191.0 275.0,191.0 L299.0,191.0 L347.0,191.0 Z" style="fill:none;stroke:#000000;stroke-width:0.5px;"/>
        <path d="M215.0,155.0 L215.0,179.0 C215.0,185.0 221.0,191.0 227.0,191.0 C233.0,191.0 239.0,185.0 239.0,179.0 L239.0,155.0 L239.0,131.0 C239.0,125.0 233.0,119.0 227.0,119.0 L203.0,119.0 L155.0,119.0 C149.0,119.0 143.0,113.0 143.0,107.0 L143.0,83.0 C143.0,77.0 137.0,71.0 131.0,71.0 L107.0,71.0 L83.0,71.0 C77.0,71.0 71.0,77.0 71.0,83.0 C71.0,89.0 77.0,95.0 83.0,95.0 L107.0,95.0 C113.0,95.0 119.0,101.0 119.0,107.0 L119.0,131.0 C119.0,137.0 125.0,143.0 131.0,143.0 L155.0,143.0 C161.0,143.0 167.0,149.0 167.0,155.0 L167.0,179.0 C167.0,185.0 173.0,191.0 179.0,191.0 C185.0,191.0 191.0,185.0 191.0,179.0 L191.0,155.0 C191.0,149.0 197.0,143.0 203.0,143.0 C209.0,143.0 215.0,149.0 215.0,155.0 Z" style="fill:none;stroke:#000000;stroke-width:0.5px;"/>
        <path d="M203.0,95.0 L227.0,95.0 C233.0,95.0 239.0,89.0 239.0,83.0 L239.0,59.0 L239.0,35.0 C239.0,29.0 233.0,23.0 227.0,23.0 C221.0,23.0 215.0,29.0 215.0,35.0 L215.0,59.0 C215.0,65.0 209.0,71.0 203.0,71.0 C197.0,71.0 191.0,65.0 191.0,59.0 L191.0,35.0 C191.0,29.0 185.0,23.0 179.0,23.0 L155.0,23.0 L131.0,23.0 C125.0,23.0 119.0,29.0 119.0,35.0 C119.0,41.0 125.0,47.0 131.0,47.0 L155.0,47.0 C161.0,47.0 167.0,53.0 167.0,59.0 L167.0,83.0 C167.0,89.0 173.0,95.0 179.0,95.0 L203.0,95.0 Z" style="fill:none;stroke:#000000;stroke-width:0.5px;"/>
        <path d="M59.0,47.0 L83.0,47.0 C89.0,47.0 95.0,41.0 95.0,35.0 C95.0,29.0 89.0,23.0 83.0,23.0 L59.0,23.0 L35.0,23.0 C29.0,23.0 23.0,29.0 23.0,35.0 C23.0,41.0 29.0,47.0 35.0,47.0 L59.0,47.0 Z" style="fill:none;stroke:#000000;stroke-width:0.5px;"/>

</svg>
